#define play1_width 16
#define play1_height 16
static char play1_bits[] = {
   0x08, 0x00, 0x18, 0x30, 0x38, 0x30, 0x78, 0x30, 0xf8, 0x30, 0xf8, 0x31,
   0xf8, 0x33, 0xf8, 0x37, 0xf8, 0x37, 0xf8, 0x33, 0xf8, 0x31, 0xf8, 0x30,
   0x78, 0x30, 0x38, 0x30, 0x18, 0x30, 0x08, 0x00};
