#define rplay1_width 16
#define rplay1_height 16
static char rplay1_bits[] = {
   0x00, 0x10, 0x0c, 0x18, 0x0c, 0x1c, 0x0c, 0x1e, 0x0c, 0x1f, 0x8c, 0x1f,
   0xcc, 0x1f, 0xec, 0x1f, 0xec, 0x1f, 0xcc, 0x1f, 0x8c, 0x1f, 0x0c, 0x1f,
   0x0c, 0x1e, 0x0c, 0x1c, 0x0c, 0x18, 0x00, 0x10};
