#define death_width 19
#define death_height 18
static char death_bits[] = {
   0xff, 0xff, 0xff, 0xff, 0xff, 0xff, 0x3f, 0xe0, 0xff, 0x1f, 0xc0, 0xff,
   0x9f, 0xcd, 0xff, 0x5f, 0xd5, 0xff, 0xdf, 0xd8, 0xff, 0x1f, 0xc2, 0xff,
   0x3f, 0xe7, 0xff, 0x7f, 0xf2, 0xff, 0x7f, 0xf5, 0xff, 0x7b, 0xf7, 0xfe,
   0xf3, 0x78, 0xfe, 0xcf, 0x9f, 0xff, 0x3f, 0xe0, 0xff, 0xcb, 0x9f, 0xfe,
   0xf3, 0x7f, 0xfe, 0xff, 0xff, 0xff};
