#define icon_width 32
#define icon_height 32
static char icon_bits[] = {
   0x00, 0x00, 0x00, 0x00, 0x00, 0x00, 0x00, 0x00, 0x00, 0x00, 0x00, 0x00,
   0x0e, 0x38, 0x1c, 0x70, 0x04, 0x10, 0x08, 0x20, 0x04, 0x10, 0x08, 0x20,
   0xfc, 0x1f, 0xf8, 0x3f, 0x84, 0x10, 0x08, 0x21, 0x84, 0x10, 0x08, 0x21,
   0x8e, 0x38, 0x1c, 0x71, 0x80, 0x00, 0x00, 0x01, 0x80, 0x00, 0x00, 0x01,
   0x80, 0x00, 0x00, 0x01, 0x80, 0x00, 0x00, 0x01, 0x80, 0x00, 0x00, 0x01,
   0x80, 0xff, 0xff, 0x01, 0x80, 0x00, 0x00, 0x01, 0x80, 0x00, 0x00, 0x01,
   0x80, 0x00, 0x00, 0x01, 0x80, 0x00, 0x00, 0x01, 0x80, 0x00, 0x00, 0x01,
   0x8e, 0x38, 0x1c, 0x71, 0x84, 0x10, 0x08, 0x21, 0x84, 0x10, 0x08, 0x21,
   0xfc, 0x1f, 0xf8, 0x3f, 0x04, 0x10, 0x08, 0x20, 0x04, 0x10, 0x08, 0x20,
   0x0e, 0x38, 0x1c, 0x70, 0x00, 0x00, 0x00, 0x00, 0x00, 0x00, 0x00, 0x00,
   0x00, 0x00, 0x00, 0x00, 0x00, 0x00, 0x00, 0x00};
